<?xml version="1.0" encoding="utf-8"?>
<!-- Generator: Adobe Illustrator 19.0.1, SVG Export Plug-In . SVG Version: 6.00 Build 0)  -->
<svg version="1.1" id="Layer_1" xmlns="http://www.w3.org/2000/svg" xmlns:xlink="http://www.w3.org/1999/xlink" x="0px" y="0px"
	 viewBox="112.5 193 407.7 407.7" style="enable-background:new 112.5 193 407.7 407.7;" xml:space="preserve">
<style type="text/css">
	.st0{fill:#C7E8FF;}
	.st1{fill:#E01E5A;}
	.st2{fill:#36C5F0;}
	.st3{fill:#2EB67D;}
	.st4{fill:#ECB22E;}
</style>
<circle class="st0" cx="316.3" cy="396.8" r="195.5"/>
<g>
	<g>
		<g>
			<path class="st1" d="M250.7,426.8c0,13.2-10.7,23.8-23.8,23.8S203,440,203,426.8s10.7-23.8,23.8-23.8h23.8V426.8z"/>
			<path class="st1" d="M262.6,426.8c0-13.2,10.7-23.8,23.8-23.8c13.2,0,23.8,10.7,23.8,23.8v59.6c0,13.2-10.7,23.8-23.8,23.8
				c-13.2,0-23.8-10.7-23.8-23.8V426.8z"/>
		</g>
		<g>
			<path class="st2" d="M286.4,331.1c-13.2,0-23.8-10.7-23.8-23.8c0-13.2,10.7-23.8,23.8-23.8c13.2,0,23.8,10.7,23.8,23.8v23.8
				H286.4z"/>
			<path class="st2" d="M286.4,343.2c13.2,0,23.8,10.7,23.8,23.8c0,13.2-10.7,23.8-23.8,23.8h-59.8c-13.2,0-23.8-10.7-23.8-23.8
				c0-13.2,10.7-23.8,23.8-23.8H286.4z"/>
		</g>
		<g>
			<path class="st3" d="M382,367c0-13.2,10.7-23.8,23.8-23.8s23.8,10.7,23.8,23.8c0,13.2-10.7,23.8-23.8,23.8H382V367z"/>
			<path class="st3" d="M370,367c0,13.2-10.7,23.8-23.8,23.8s-23.8-10.7-23.8-23.8v-59.8c0-13.2,10.7-23.8,23.8-23.8
				S370,294,370,307.2V367z"/>
		</g>
		<g>
			<path class="st4" d="M346.2,462.5c13.2,0,23.8,10.7,23.8,23.8s-10.7,23.8-23.8,23.8s-23.8-10.7-23.8-23.8v-23.8H346.2z"/>
			<path class="st4" d="M346.2,450.6c-13.2,0-23.8-10.7-23.8-23.8s10.7-23.8,23.8-23.8H406c13.2,0,23.8,10.7,23.8,23.8
				s-10.7,23.8-23.8,23.8H346.2z"/>
		</g>
	</g>
</g>
</svg>
